<svg xmlns="http://www.w3.org/2000/svg" xmlns:xlink="http://www.w3.org/1999/xlink" version="1.1" x="0px" y="0px" viewBox="0 0 100 125" style="enable-background:new 0 0 100 100;" xml:space="preserve"><g><path d="M50,50"/><path d="M87.558,28.563L87.558,28.563C87.605,28.563,87.583,28.563,87.558,28.563z M83.261,21.219L83.261,21.219   C83.188,21.219,83.223,21.219,83.261,21.219z M43.348,52.73c1.9,0,3.441-1.539,3.441-3.442c0-1.903-1.541-3.441-3.441-3.441   c-1.903,0-3.444,1.538-3.444,3.441C39.903,51.191,41.444,52.73,43.348,52.73z M16.736,21.219L16.736,21.219   C16.775,21.219,16.81,21.219,16.736,21.219z M42.935,64.316c0,3.896,3.163,7.063,7.065,7.063c3.899,0,7.063-3.166,7.063-7.063   c0-3.902-3.163-7.063-7.063-7.063C46.097,57.254,42.935,60.414,42.935,64.316z M56.652,52.73c1.9,0,3.441-1.539,3.441-3.442   c0-1.903-1.541-3.441-3.441-3.441c-1.904,0-3.445,1.538-3.445,3.441C53.207,51.191,54.748,52.73,56.652,52.73z M60.392,69.79   c-0.872-0.212-1.756,0.327-1.968,1.198c-0.041,0.16-1.285,4.461-8.424,4.461c-7.143,0-8.382-4.301-8.431-4.48   c-0.234-0.858-1.115-1.384-1.98-1.166c-0.865,0.219-1.394,1.083-1.186,1.948c0.07,0.288,1.791,6.954,11.596,6.954   c9.802,0,11.522-6.666,11.594-6.954C61.805,70.879,61.266,69.995,60.392,69.79z M87.558,28.563   C87.506,28.563,87.531,28.563,87.558,28.563c-2.355,12.792-13.302,14.631-16.262,15.047c0.525,1.865,1.454,4.973,0.32,10.459   c3.909,4.094,6.03,9.157,6.03,14.541c0,16.443-17.002,23.135-27.265,23.135c-12.686,0-27.262-7.857-27.262-23.135   c0-5.384,2.118-10.447,6.031-14.541c-1.029-4.782-0.215-8.531,0.292-10.37c0,0-14.5-0.635-17.002-15.137   C10.289,28.563,0,28.32,0,14.843c0-1.288,1.041-2.333,2.326-2.333c1.288,0,2.33,1.044,2.33,2.333c0,9.19,6.043,9.068,7.424,9.075   v-13.33c0-1.288,1.042-2.333,2.326-2.333c1.288,0,2.33,1.045,2.33,2.333v5.979c1.477,0.064,6.934,0.192,6.934-5.793   c0-1.282,1.042-2.327,2.33-2.327c1.282,0,2.326,1.045,2.326,2.327c0,10.273-9.465,10.446-11.59,10.446c-0.09,0-0.042,0,0,0v2.948   c0,14.701,13.378,14.977,14.525,15.002c3.679-6.793,10.869-11.42,19.12-11.42c8.238,0,15.416,4.608,19.101,11.382   c1.961-0.147,13.778-1.045,13.778-14.964v-2.948c0.044,0,0.089,0,0,0c-2.124,0-11.591-0.224-11.591-10.446   c0-1.282,1.045-2.327,2.33-2.327s2.33,1.045,2.33,2.327c0,6.094,5.453,5.857,6.931,5.793v-5.979c0-1.288,1.041-2.333,2.329-2.333   c1.285,0,2.326,1.045,2.326,2.333v13.33c1.371,0,7.425,0.058,7.425-9.075c0-1.288,1.044-2.333,2.329-2.333s2.33,1.044,2.33,2.333   C100,28.32,89.707,28.563,87.558,28.563z M66.339,55.531c0.714-1.885,1.112-3.922,1.112-6.056c0-9.428-7.643-17.066-17.07-17.066   s-17.069,7.639-17.069,17.066c0,2.134,0.397,4.171,1.112,6.056c-4.108,3.346-6.649,7.973-6.649,13.08   c0,10.201,10.119,18.475,22.606,18.475c12.488,0,22.607-8.273,22.607-18.475C72.988,63.504,70.443,58.877,66.339,55.531z"/></g><text x="0" y="115" fill="#000000" font-size="5px" font-weight="bold" font-family="'Helvetica Neue', Helvetica, Arial-Unicode, Arial, Sans-serif">Created by b farias</text><text x="0" y="120" fill="#000000" font-size="5px" font-weight="bold" font-family="'Helvetica Neue', Helvetica, Arial-Unicode, Arial, Sans-serif">from the Noun Project</text></svg>